<svg xmlns="http://www.w3.org/2000/svg" viewBox="0 0 38.84 60.29"><defs><style>.cls-1{fill:#e58b41;}</style></defs><title>orange-arrow</title><g id="Layer_2" data-name="Layer 2"><g id="Layer_2-2" data-name="Layer 2"><path class="cls-1" d="M38.84,15.8c.12-5.9-4-11-7.57-15.3C30-1,27.91,1.15,29.14,2.62c3,3.58,6.84,8.19,6.7,13.18-.13,4.55-3.82,7.85-7.44,10a23.15,23.15,0,0,1-4.83,2.14,17,17,0,0,0-5.81-7.54c-4.32-3-9.88-1.92-14.32.28-2.79,1.39-4.81,3.95-2.29,6.71C4.3,30.84,11,31.94,15.4,32.07a28,28,0,0,0,5.91-.49c1.88,6.1,2.39,12.76,2.46,19.19a25.78,25.78,0,0,0-4.07-6.21c-1.28-1.45-3.4.68-2.12,2.12A22.22,22.22,0,0,1,23,58.74c.14,1.11,1.65,2.21,2.56,1.06a30,30,0,0,0,6.11-12.92c.38-1.89-2.51-2.69-2.89-.8a28,28,0,0,1-2,6.22c.05-6.31-.06-14.66-2.21-21.56a26.57,26.57,0,0,0,6.54-3.12C35.18,24.9,38.74,20.91,38.84,15.8ZM6.25,27C-.13,24,8.75,21.32,12,21.49c4.29.24,6.81,3.62,8.34,7.24A24.18,24.18,0,0,1,6.25,27Z"/></g></g></svg>